<svg version="1.1" id="Layer_1" xmlns="http://www.w3.org/2000/svg" xmlns:xlink="http://www.w3.org/1999/xlink" x="0px" y="0px"
	 width="100%" viewBox="0 0 320 157" enable-background="new 0 0 320 157" xml:space="preserve">
<path fill="#FCFCFC" opacity="1.000000" stroke="none" 
	d="
M263.000000,1.000000 
	C265.370575,1.000000 267.741119,1.000000 270.410095,1.399682 
	C270.708496,9.425074 270.708496,17.050783 270.708496,24.581228 
	C274.346130,24.581228 277.921600,24.581228 281.893738,24.581228 
	C281.893738,17.524876 281.972168,10.760828 281.809265,4.002601 
	C281.784790,2.987786 280.631256,2.000189 280.000000,1.000001 
	C288.020905,1.000000 296.041809,1.000000 304.585327,1.279773 
	C305.125610,1.748671 305.143311,1.937796 305.089874,2.582485 
	C305.013428,5.821342 304.892212,8.610355 305.029297,11.386617 
	C305.247681,15.810805 305.638062,20.226505 306.408142,24.740780 
	C310.086212,24.835766 313.311798,24.835766 316.721558,24.835766 
	C316.721558,17.069326 316.721558,10.112123 316.831726,2.805222 
	C316.961273,1.970349 316.980652,1.485175 317.000000,1.000000 
	C318.326904,1.000000 319.653778,1.000000 321.000000,1.000000 
	C321.000000,29.687559 321.000000,58.375122 320.531342,87.530457 
	C213.708450,87.998825 107.354225,87.999413 1.000000,88.000000 
	C1.000000,74.312439 1.000000,60.624878 1.345657,46.642296 
	C4.422604,62.739105 17.495565,75.074287 34.090603,76.918098 
	C49.660782,78.648033 62.749035,70.355865 66.420486,56.337639 
	C66.753082,55.067715 66.464699,53.635151 66.464699,52.278114 
	C65.959030,52.207951 65.453354,52.137783 64.947685,52.067619 
	C64.153152,53.991421 63.329025,55.903606 62.569050,57.840961 
	C58.582890,68.002640 51.956799,72.739716 42.040905,73.251396 
	C30.655985,73.838867 22.540585,67.466293 19.012867,58.964611 
	C15.038617,49.386803 15.082396,39.500500 16.625189,29.516399 
	C17.763693,22.148619 20.202612,15.360732 25.649805,9.879462 
	C33.577518,1.902152 45.083126,1.402747 52.646652,9.661271 
	C56.127956,13.462464 58.117352,18.619719 60.859577,23.115515 
	C61.523067,24.203283 62.489059,25.106537 63.315945,26.094639 
	C63.837414,25.772823 64.358879,25.451008 64.880348,25.129190 
	C63.935825,17.479553 62.991302,9.829914 62.045662,1.884788 
	C62.029697,1.392866 62.014847,1.196433 62.000000,1.000000 
	C124.020897,1.000000 186.041794,1.000000 248.530182,1.378484 
	C249.391647,2.765622 249.738327,3.795931 250.188385,4.778903 
	C251.581161,7.820891 253.839478,10.738202 254.247559,13.899387 
	C254.960663,19.423512 254.610458,25.094233 254.527771,30.700901 
	C254.516403,31.472118 253.486221,32.228313 252.877365,32.636497 
	C247.945419,29.285156 242.726227,27.933514 236.618500,28.982756 
	C223.421524,31.971231 216.937347,40.016743 216.989075,52.809906 
	C217.037674,64.828453 223.988190,73.255089 236.395325,75.997131 
	C242.276001,76.871887 247.509308,76.267548 252.354477,73.266083 
	C253.010025,72.860001 254.082169,73.126381 254.983536,73.059532 
	C255.005676,73.037689 254.946228,73.019379 254.919907,73.347687 
	C255.257187,74.376472 255.620804,75.076935 256.379364,76.033188 
	C258.899597,76.181458 261.024231,76.058838 263.150330,75.969841 
	C266.609070,75.825043 267.910614,74.291283 266.663116,70.853081 
	C265.722565,68.260841 264.967682,65.601219 264.188477,62.507759 
	C264.218597,43.611729 264.218384,25.179377 264.115021,6.747599 
	C264.105652,5.077082 263.432434,3.410288 263.131592,1.548958 
	C263.195648,1.356151 263.000000,1.000000 263.000000,1.000000 
M120.824501,39.951649 
	C120.823189,48.623440 120.821869,57.295235 120.378944,66.529961 
	C118.955719,69.359344 117.532486,72.188736 116.324394,74.590439 
	C122.644714,74.590439 129.878510,74.590439 136.581268,74.590439 
	C134.804169,72.612656 131.583511,70.692291 131.533981,68.693344 
	C131.280884,58.479664 130.821854,48.068584 132.546967,38.091747 
	C133.442184,32.914474 129.141342,31.866144 128.658432,28.410213 
	C128.637772,28.262390 127.411049,28.099483 126.820190,28.244734 
	C122.981308,29.188442 119.162941,30.215599 116.070129,31.024027 
	C117.808197,33.897400 119.357483,36.458675 120.824501,39.951649 
M152.383713,66.524788 
	C150.655243,69.366661 148.926773,72.208527 147.208008,75.034447 
	C150.383362,75.034447 154.173325,75.034447 157.963303,75.034447 
	C161.612350,75.034447 165.261414,75.034447 168.910461,75.034447 
	C164.039032,72.236389 162.968613,68.228943 162.928848,63.653988 
	C162.866608,56.491238 162.649780,49.324036 162.819748,42.166348 
	C163.119141,29.557953 150.100235,25.720854 139.676529,29.767794 
	C146.735626,31.369408 152.307693,33.664715 152.757233,41.958767 
	C152.777466,49.961445 152.797684,57.964119 152.383713,66.524788 
M207.140533,37.229080 
	C206.761978,36.317623 206.591415,35.221901 205.972534,34.523365 
	C200.138580,27.938461 185.591400,25.434649 177.756073,30.036894 
	C175.735504,31.223713 174.119690,33.827076 173.350235,36.125336 
	C172.933228,37.370808 174.372055,40.375217 175.547089,40.740170 
	C177.168503,41.243767 179.504562,40.317509 181.193008,39.385189 
	C182.106659,38.880688 182.568298,37.135815 182.785904,35.873287 
	C183.387451,32.382950 185.473053,30.437922 188.834869,30.429724 
	C192.060974,30.421858 194.831650,31.595020 196.265762,35.028286 
	C198.710434,40.880856 198.432617,46.212391 193.259720,50.974373 
	C191.842361,51.307377 190.425003,51.640377 188.150726,51.988750 
	C185.345200,52.618523 182.550064,53.299828 179.732025,53.867489 
	C173.625702,55.097534 170.896744,58.210869 170.892975,64.059433 
	C170.889618,69.287956 174.637817,73.804474 179.663467,75.156273 
	C186.431808,76.976822 192.637970,76.118851 198.320450,71.654793 
	C203.286194,77.598961 209.060638,75.430229 214.885483,73.852539 
	C209.433151,73.862801 208.051361,70.302620 207.895569,65.960709 
	C207.573914,56.997086 207.442886,48.026619 207.342407,38.492577 
	C207.253860,38.321926 207.165298,38.151279 207.140533,37.229080 
M103.991150,40.333115 
	C103.929619,39.908741 103.868088,39.484364 103.896866,38.321362 
	C103.128197,36.921963 102.578224,35.332264 101.554016,34.155224 
	C96.382225,28.211683 89.094757,28.139973 82.193428,28.161303 
	C78.715012,28.172052 74.828583,29.761568 71.934189,31.789679 
	C70.360847,32.892120 70.131180,36.395542 70.039001,38.844006 
	C70.010063,39.612869 72.882706,41.448032 73.590111,41.098911 
	C75.351273,40.229717 76.702682,38.448475 78.071571,36.903160 
	C78.692940,36.201702 79.032707,35.217690 79.384964,34.316788 
	C80.774330,30.763493 83.332283,29.824856 86.892799,30.701849 
	C93.986900,32.449211 96.559250,42.304100 90.979622,49.000660 
	C89.682823,49.989357 88.386024,50.978050 86.251953,51.854733 
	C82.201897,52.499615 77.976624,52.625362 74.145386,53.918537 
	C69.165321,55.599487 66.755554,60.159508 67.369736,64.797020 
	C68.131577,70.549416 71.162804,73.583862 76.168533,75.187294 
	C82.998459,77.375031 88.797958,75.183212 94.402481,71.930359 
	C101.693748,77.125038 108.333687,77.722656 113.495514,73.022865 
	C108.100204,74.478783 105.456299,72.201935 104.196892,67.319366 
	C104.114510,66.884926 104.032127,66.450485 104.087929,65.085678 
	C104.018333,57.047565 103.948746,49.009453 103.991150,40.333115 
M292.229980,51.855446 
	C289.396271,52.118031 286.520294,52.158192 283.737183,52.686996 
	C276.781464,54.008602 272.604736,58.832394 272.981018,64.777916 
	C273.363647,70.823814 278.913788,76.148918 285.804352,75.882256 
	C290.835632,75.687553 295.811096,74.050385 301.737152,72.872185 
	C307.762695,77.341354 315.779755,77.846863 318.656403,73.185966 
	C312.319977,73.625877 310.330048,72.041412 310.112366,65.515442 
	C309.846222,57.534786 309.981323,49.541050 309.920868,41.553139 
	C309.875153,35.513996 306.242462,30.382677 300.425232,29.196337 
	C296.134369,28.321272 291.652130,28.028076 287.267212,28.111338 
	C284.842224,28.157385 282.432220,29.482018 280.032867,30.282518 
	C275.581512,31.767660 275.347626,35.412571 276.019165,39.088646 
	C276.187744,40.011314 278.227600,41.208942 279.413666,41.215851 
	C283.322540,41.238617 284.276398,38.078342 285.174805,35.033787 
	C286.311829,31.180590 288.932526,29.818394 292.753937,30.695251 
	C299.872375,32.328632 302.430115,42.064884 296.940857,48.993382 
	C295.653412,49.985733 294.365936,50.978085 292.229980,51.855446 
M301.365112,11.202460 
	C299.879272,10.604150 298.393463,10.005839 296.407196,9.206017 
	C295.834229,8.024644 294.811371,5.915601 293.760162,3.748124 
	C290.719727,5.903111 289.962585,10.235132 285.645538,10.297306 
	C285.490509,10.299540 284.823456,12.898368 285.323425,13.726601 
	C287.673889,17.620224 291.285126,20.270945 295.753448,18.344248 
	C298.175568,17.299850 299.666077,14.094980 301.365112,11.202460 
z"/>
<path fill="#276395" opacity="1.000000" stroke="none" 
	d="
M1.000000,88.468658 
	C107.354225,87.999413 213.708450,87.998825 320.531342,87.999115 
	C321.000000,111.311127 321.000000,134.622253 321.000000,157.966690 
	C214.457062,157.966690 107.914116,157.966690 1.000000,157.966690 
	C1.000000,134.980438 1.000000,111.958878 1.000000,88.468658 
M89.496445,113.244759 
	C88.677979,113.827896 87.859505,114.411034 86.985641,114.121208 
	C87.276199,105.524910 84.974243,101.801849 77.429428,101.304741 
	C68.351082,100.706589 59.203224,101.163246 49.654034,101.163246 
	C49.110275,105.042130 48.600723,108.676964 47.963757,113.220734 
	C55.012444,112.704483 61.074894,112.270889 67.135399,111.811684 
	C69.709610,111.616631 72.790802,111.664536 72.781548,114.764252 
	C72.776520,116.445694 70.327415,118.503426 68.514412,119.660965 
	C67.306526,120.432167 65.275871,119.960358 63.613209,119.965553 
	C57.205894,119.985573 50.798477,119.973679 43.983757,119.973679 
	C41.659954,115.010345 39.159843,109.397095 36.373432,103.929756 
	C35.751831,102.710083 34.212173,101.363251 32.942204,101.188812 
	C29.999210,100.784569 26.936293,100.836746 23.978437,101.184258 
	C22.948439,101.305260 21.428885,102.719902 21.243622,103.744553 
	C18.792583,117.300812 16.539770,130.892914 14.190435,144.753235 
	C18.791311,144.753235 23.222103,144.753235 27.846645,144.753235 
	C29.020760,137.669388 30.168646,130.743805 31.344492,123.649498 
	C31.868288,124.048492 32.224716,124.183632 32.347584,124.433578 
	C35.205254,130.246857 37.928387,136.130386 40.956116,141.852905 
	C41.659145,143.181656 43.302433,144.715286 44.654774,144.863724 
	C48.404549,145.275330 52.229023,145.006409 56.224365,145.006409 
	C56.858837,141.709381 57.482960,138.806351 57.965031,135.879898 
	C58.656994,131.679276 61.568123,129.233185 65.505661,130.049866 
	C69.759369,130.932129 69.477852,134.265228 69.038628,137.512711 
	C68.860626,138.828735 68.580307,140.130661 68.360565,141.441360 
	C67.929626,144.011688 68.959465,145.126801 71.620605,145.037491 
	C75.273567,144.914902 78.933731,145.006836 82.383133,145.006836 
	C82.646126,141.373413 82.891243,137.986969 83.664749,134.083511 
	C84.293579,133.386887 84.922409,132.690247 85.623039,131.914093 
	C91.468300,143.920837 98.614227,148.181137 109.697845,146.451904 
	C118.983986,145.003128 127.404243,137.304230 129.511978,128.119003 
	C123.435150,128.487091 116.850250,125.565346 112.389381,132.962143 
	C111.451546,134.517227 106.593018,135.018173 104.358719,134.072708 
	C102.520943,133.295044 101.092567,129.705292 100.935913,127.268448 
	C100.742065,124.253105 101.732735,121.028801 102.775627,118.095268 
	C104.761566,112.509041 108.037888,109.892380 112.892822,111.232117 
	C115.418602,111.929123 117.186852,115.371262 119.297287,117.573387 
	C119.032249,118.059425 118.767212,118.545456 118.502174,119.031487 
	C122.676529,118.555199 126.850891,118.078911 130.924393,117.614128 
	C132.540466,109.811295 128.829681,103.490509 121.482216,101.073822 
	C109.517586,97.138496 98.551414,101.297256 89.496445,113.244759 
M192.894455,131.851608 
	C192.203140,136.062073 191.511826,140.272537 190.796799,144.627441 
	C195.658951,144.627441 200.037888,144.627441 204.403839,144.627441 
	C205.546402,138.029648 206.625168,131.800232 207.703949,125.570824 
	C209.649429,126.494370 210.440475,127.454903 210.975784,128.541443 
	C213.103928,132.861252 215.329742,137.147110 217.165237,141.591782 
	C218.310791,144.365753 219.978394,145.276352 222.869080,145.065155 
	C226.152588,144.825272 229.467072,145.009750 232.812866,145.009750 
	C233.724731,139.999939 234.555969,135.433014 235.391129,130.844620 
	C236.547287,130.844620 237.697800,131.003830 238.789825,130.818497 
	C245.320221,129.710205 246.722244,131.170334 245.593231,137.819824 
	C245.220215,140.016739 245.148926,142.264893 244.912811,144.775375 
	C250.230026,144.775375 254.831894,144.775375 259.607239,144.775375 
	C257.206848,138.049652 264.490021,130.050842 256.054443,124.363861 
	C258.627258,122.421539 261.003510,120.627617 263.931915,118.416832 
	C263.471161,122.175018 262.939209,124.952477 262.822906,127.747231 
	C262.429321,137.205627 267.002319,143.269073 276.172760,145.471344 
	C283.565552,147.246719 290.541718,146.110703 296.823364,141.768082 
	C301.561310,138.492645 304.975952,134.227463 306.194397,127.992622 
	C304.511993,127.992622 303.355316,127.973396 302.199463,127.995979 
	C297.460541,128.088547 292.590912,126.831612 289.388763,132.604691 
	C288.457489,134.283630 283.352325,135.045181 281.007904,134.107803 
	C279.073090,133.334213 277.609802,129.506378 277.361786,126.896637 
	C277.093719,124.075981 278.189240,120.991890 279.209869,118.213707 
	C280.778687,113.943413 283.303314,110.628365 288.639923,110.866859 
	C293.674957,111.091888 293.914948,115.020721 294.633484,118.769516 
	C297.039093,118.769516 299.204529,118.972137 301.313538,118.713898 
	C303.528992,118.442642 305.690369,117.729996 307.788361,117.230942 
	C308.473633,108.065086 305.013824,103.064758 296.598358,100.761948 
	C285.041046,97.599396 274.107849,101.792076 267.556793,111.884102 
	C266.870483,112.941391 266.113129,113.952538 264.858215,115.741219 
	C264.395172,113.863091 264.002167,112.841934 263.908142,111.793953 
	C263.326202,105.305901 260.903229,101.787422 254.694290,101.398491 
	C245.291885,100.809509 235.825348,101.244637 226.188217,101.244637 
	C225.689606,105.114090 225.234894,108.642845 224.651291,113.171852 
	C231.584015,112.695389 237.624359,112.021118 243.666229,112.007256 
	C245.746948,112.002495 249.210236,113.229935 249.628418,114.620361 
	C250.511032,117.555000 248.022308,119.361137 245.023239,119.811043 
	C243.878372,119.982788 242.699356,119.963150 241.535690,119.966888 
	C236.705704,119.982399 231.870514,119.845894 227.048309,120.040375 
	C225.275833,120.111847 223.534058,120.944542 221.315704,121.557915 
	C219.925430,118.622177 218.239914,115.032753 216.528870,111.455536 
	C211.355469,100.639809 211.351501,100.639198 199.433075,101.154793 
	C199.126511,101.168053 198.828812,101.386421 197.995316,101.725304 
	C196.639252,110.423073 195.238174,119.409637 193.207199,128.836472 
	C192.629501,129.101959 192.005585,129.664825 191.481781,129.583405 
	C188.631226,129.140320 185.817474,128.462097 182.967941,128.010559 
	C179.425095,127.449127 177.219894,128.772018 174.847031,131.813660 
	C173.286545,133.813995 168.982864,134.719391 166.107361,134.387009 
	C162.427048,133.961578 161.446350,130.204468 162.083527,126.908371 
	C162.859161,122.895935 164.013824,118.877365 165.624435,115.127724 
	C167.283691,111.264809 171.404312,110.400909 174.733139,111.342659 
	C176.666718,111.889687 177.773026,115.369156 179.244415,117.533943 
	C179.503983,117.915840 179.728165,118.321777 180.218048,119.125931 
	C184.318176,118.610336 188.500580,118.084389 192.572098,117.572395 
	C193.361008,108.522652 189.859818,103.212547 181.966293,100.890503 
	C162.901123,95.282059 144.775192,111.749237 147.694641,131.755661 
	C148.573029,137.774948 151.852386,142.992294 156.639832,144.489792 
	C168.645020,148.244980 181.542618,146.693268 189.399826,133.153381 
	C189.998718,132.121338 191.709564,131.734573 192.894455,131.851608 
M142.890778,120.594803 
	C140.667068,120.337997 138.443344,120.081192 135.828430,119.779205 
	C135.501022,122.454521 135.237213,124.610146 134.961472,126.863220 
	C137.705231,126.382530 139.768463,126.021065 142.207397,125.593781 
	C142.460709,124.303108 142.740494,122.877541 142.890778,120.594803 
z"/>
<path fill="#221F20" opacity="1.000000" stroke="none" 
	d="
M62.046776,2.180276 
	C62.991302,9.829914 63.935825,17.479553 64.880348,25.129190 
	C64.358879,25.451008 63.837414,25.772823 63.315945,26.094639 
	C62.489059,25.106537 61.523067,24.203283 60.859577,23.115515 
	C58.117352,18.619719 56.127956,13.462464 52.646652,9.661271 
	C45.083126,1.402747 33.577518,1.902152 25.649805,9.879462 
	C20.202612,15.360732 17.763693,22.148619 16.625189,29.516399 
	C15.082396,39.500500 15.038617,49.386803 19.012867,58.964611 
	C22.540585,67.466293 30.655985,73.838867 42.040905,73.251396 
	C51.956799,72.739716 58.582890,68.002640 62.569050,57.840961 
	C63.329025,55.903606 64.153152,53.991421 64.947685,52.067619 
	C65.453354,52.137783 65.959030,52.207951 66.464699,52.278114 
	C66.464699,53.635151 66.753082,55.067715 66.420486,56.337639 
	C62.749035,70.355865 49.660782,78.648033 34.090603,76.918098 
	C17.495565,75.074287 4.422604,62.739105 1.345657,46.173637 
	C1.000000,41.643101 1.000000,37.286201 1.362200,32.333649 
	C2.984318,24.311398 6.378441,18.009996 11.555111,12.560628 
	C17.460211,6.344456 25.176336,3.598356 33.000000,1.000000 
	C36.692909,1.000000 40.385818,1.000000 44.724030,1.312217 
	C46.907990,2.076425 48.421764,2.661859 49.990166,2.954410 
	C54.059116,3.713384 58.331234,7.043806 62.046776,2.180276 
z"/>
<path fill="#272324" opacity="1.000000" stroke="none" 
	d="
M262.555847,1.000000 
	C263.000000,1.000000 263.195648,1.356151 263.106934,2.033796 
	C263.008881,21.274849 262.972839,39.838356 263.039642,58.401489 
	C263.045105,59.926147 263.750153,61.448288 264.130157,62.971600 
	C264.967682,65.601219 265.722565,68.260841 266.663116,70.853081 
	C267.910614,74.291283 266.609070,75.825043 263.150330,75.969841 
	C261.024231,76.058838 258.899597,76.181458 256.373779,75.711571 
	C255.630905,74.429237 255.288574,73.724304 254.946228,73.019379 
	C254.946228,73.019379 255.005676,73.037689 254.922028,72.742050 
	C253.235641,72.015907 251.632904,71.585411 250.142746,70.811615 
	C256.623199,60.954597 255.915833,41.673168 249.286530,33.026299 
	C250.769455,32.996868 251.848572,32.994167 252.927704,32.991467 
	C253.486221,32.228313 254.516403,31.472118 254.527771,30.700901 
	C254.610458,25.094233 254.960663,19.423512 254.247559,13.899387 
	C253.839478,10.738202 251.581161,7.820891 250.188385,4.778903 
	C249.738327,3.795931 249.391647,2.765622 248.998840,1.378484 
	C249.000000,1.000000 249.500000,1.000000 249.886444,1.349848 
	C251.848587,1.466464 253.424286,1.233233 255.000000,1.000001 
	C257.370544,1.000000 259.741119,1.000000 262.555847,1.000000 
z"/>
<path fill="#FBFBFB" opacity="1.000000" stroke="none" 
	d="
M32.531342,1.000000 
	C25.176336,3.598356 17.460211,6.344456 11.555111,12.560628 
	C6.378441,18.009996 2.984318,24.311398 1.362200,31.868996 
	C1.000000,21.738972 1.000000,11.477942 1.000000,1.000000 
	C11.353220,1.000000 21.707951,1.000000 32.531342,1.000000 
z"/>
<path fill="#ED2128" opacity="1.000000" stroke="none" 
	d="
M279.550018,1.000001 
	C280.631256,2.000189 281.784790,2.987786 281.809265,4.002601 
	C281.972168,10.760828 281.893738,17.524876 281.893738,24.581228 
	C277.921600,24.581228 274.346130,24.581228 270.708496,24.581228 
	C270.708496,17.050783 270.708496,9.425074 270.854248,1.399682 
	C273.700012,1.000000 276.400024,1.000000 279.550018,1.000001 
z"/>
<path fill="#EFEFEF" opacity="1.000000" stroke="none" 
	d="
M62.045662,1.884788 
	C58.331234,7.043806 54.059116,3.713384 49.990166,2.954410 
	C48.421764,2.661859 46.907990,2.076425 45.184662,1.312217 
	C50.354931,1.000000 55.709858,1.000000 61.532394,1.000000 
	C62.014847,1.196433 62.029697,1.392866 62.045662,1.884788 
z"/>
<path fill="#F38083" opacity="1.000000" stroke="none" 
	d="
M316.539368,1.000000 
	C316.980652,1.485175 316.961273,1.970349 316.636963,2.781828 
	C316.332001,3.108134 315.952667,3.007690 315.872498,2.729373 
	C315.234100,2.369866 314.675873,2.288676 313.669189,2.145592 
	C311.111694,2.124926 309.002686,2.166153 306.606018,2.174810 
	C305.932617,2.137133 305.546783,2.132027 305.160980,2.126920 
	C305.143311,1.937796 305.125610,1.748671 305.053955,1.279773 
	C308.692902,1.000000 312.385834,1.000000 316.539368,1.000000 
z"/>
<path fill="#B5B4B4" opacity="1.000000" stroke="none" 
	d="
M254.583344,1.000001 
	C253.424286,1.233233 251.848587,1.466464 250.136444,1.349848 
	C251.388885,1.000000 252.777786,1.000000 254.583344,1.000001 
z"/>
<path fill="#231F20" opacity="1.000000" stroke="none" 
	d="
M297.583252,48.985439 
	C302.430115,42.064884 299.872375,32.328632 292.753937,30.695251 
	C288.932526,29.818394 286.311829,31.180590 285.174805,35.033787 
	C284.276398,38.078342 283.322540,41.238617 279.413666,41.215851 
	C278.227600,41.208942 276.187744,40.011314 276.019165,39.088646 
	C275.347626,35.412571 275.581512,31.767660 280.032867,30.282518 
	C282.432220,29.482018 284.842224,28.157385 287.267212,28.111338 
	C291.652130,28.028076 296.134369,28.321272 300.425232,29.196337 
	C306.242462,30.382677 309.875153,35.513996 309.920868,41.553139 
	C309.981323,49.541050 309.846222,57.534786 310.112366,65.515442 
	C310.330048,72.041412 312.319977,73.625877 318.656403,73.185966 
	C315.779755,77.846863 307.762695,77.341354 301.737152,72.872185 
	C295.811096,74.050385 290.835632,75.687553 285.804352,75.882256 
	C278.913788,76.148918 273.363647,70.823814 272.981018,64.777916 
	C272.604736,58.832394 276.781464,54.008602 283.737183,52.686996 
	C286.520294,52.158192 289.396271,52.118031 292.594604,52.267242 
	C290.633209,54.687572 287.965302,56.419151 286.061554,58.769665 
	C283.218353,62.280060 281.937012,66.433876 285.067291,70.480835 
	C286.145264,71.874481 288.124084,73.420395 289.694519,73.423729 
	C294.284149,73.433479 298.269897,71.610428 299.163544,66.518517 
	C300.203613,60.592056 301.836853,54.486660 297.583252,48.985439 
z"/>
<path fill="#221E1F" opacity="1.000000" stroke="none" 
	d="
M91.624763,48.989017 
	C96.559250,42.304100 93.986900,32.449211 86.892799,30.701849 
	C83.332283,29.824856 80.774330,30.763493 79.384964,34.316788 
	C79.032707,35.217690 78.692940,36.201702 78.071571,36.903160 
	C76.702682,38.448475 75.351273,40.229717 73.590111,41.098911 
	C72.882706,41.448032 70.010063,39.612869 70.039001,38.844006 
	C70.131180,36.395542 70.360847,32.892120 71.934189,31.789679 
	C74.828583,29.761568 78.715012,28.172052 82.193428,28.161303 
	C89.094757,28.139973 96.382225,28.211683 101.554016,34.155224 
	C102.578224,35.332264 103.128197,36.921963 103.660019,38.846779 
	C103.575165,39.905243 103.727158,40.438290 103.879150,40.971340 
	C103.948746,49.009453 104.018333,57.047565 103.789352,65.693039 
	C103.692200,66.859558 103.893616,67.418716 104.095039,67.977875 
	C105.456299,72.201935 108.100204,74.478783 113.495514,73.022865 
	C108.333687,77.722656 101.693748,77.125038 94.402481,71.930359 
	C88.797958,75.183212 82.998459,77.375031 76.168533,75.187294 
	C71.162804,73.583862 68.131577,70.549416 67.369736,64.797020 
	C66.755554,60.159508 69.165321,55.599487 74.145386,53.918537 
	C77.976624,52.625362 82.201897,52.499615 86.615448,52.268631 
	C84.259972,55.366920 81.153297,57.767014 78.922455,60.809330 
	C76.271118,64.425087 77.633270,71.411278 80.668259,72.760048 
	C84.948898,74.662392 91.183929,72.575409 92.706398,67.843979 
	C94.713219,61.607296 96.014038,55.031673 91.624763,48.989017 
z"/>
<path fill="#272324" opacity="1.000000" stroke="none" 
	d="
M193.969513,51.009315 
	C198.432617,46.212391 198.710434,40.880856 196.265762,35.028286 
	C194.831650,31.595020 192.060974,30.421858 188.834869,30.429724 
	C185.473053,30.437922 183.387451,32.382950 182.785904,35.873287 
	C182.568298,37.135815 182.106659,38.880688 181.193008,39.385189 
	C179.504562,40.317509 177.168503,41.243767 175.547089,40.740170 
	C174.372055,40.375217 172.933228,37.370808 173.350235,36.125336 
	C174.119690,33.827076 175.735504,31.223713 177.756073,30.036894 
	C185.591400,25.434649 200.138580,27.938461 205.972534,34.523365 
	C206.591415,35.221901 206.761978,36.317623 206.925598,37.712868 
	C206.884918,38.484089 207.059189,38.771526 207.233459,39.058968 
	C207.442886,48.026619 207.573914,56.997086 207.895569,65.960709 
	C208.051361,70.302620 209.433151,73.862801 214.885483,73.852539 
	C209.060638,75.430229 203.286194,77.598961 198.320450,71.654793 
	C192.637970,76.118851 186.431808,76.976822 179.663467,75.156273 
	C174.637817,73.804474 170.889618,69.287956 170.892975,64.059433 
	C170.896744,58.210869 173.625702,55.097534 179.732025,53.867489 
	C182.550064,53.299828 185.345200,52.618523 188.641327,52.349457 
	C187.072586,55.077038 184.878372,57.341644 182.987045,59.835907 
	C180.449661,63.182152 180.466721,66.881340 182.348724,70.527100 
	C184.268661,74.246391 188.176910,73.589226 190.696045,72.664864 
	C193.205658,71.743988 196.089554,68.952423 196.731583,66.448349 
	C197.978363,61.585602 197.769867,56.349720 198.184433,51.009315 
	C196.277054,51.009315 195.123276,51.009315 193.969513,51.009315 
z"/>
<path fill="#292526" opacity="1.000000" stroke="none" 
	d="
M152.859497,41.029919 
	C152.307693,33.664715 146.735626,31.369408 139.676529,29.767794 
	C150.100235,25.720854 163.119141,29.557953 162.819748,42.166348 
	C162.649780,49.324036 162.866608,56.491238 162.928848,63.653988 
	C162.968613,68.228943 164.039032,72.236389 168.910461,75.034447 
	C165.261414,75.034447 161.612350,75.034447 157.963303,75.034447 
	C154.173325,75.034447 150.383362,75.034447 147.208008,75.034447 
	C148.926773,72.208527 150.655243,69.366661 152.942947,65.998138 
	C153.674149,59.679428 153.974640,53.886936 153.955536,48.095497 
	C153.947769,45.739128 153.245682,43.385044 152.859497,41.029919 
z"/>
<path fill="#282425" opacity="1.000000" stroke="none" 
	d="
M120.906761,39.019947 
	C119.357483,36.458675 117.808197,33.897400 116.070129,31.024027 
	C119.162941,30.215599 122.981308,29.188442 126.820190,28.244734 
	C127.411049,28.099483 128.637772,28.262390 128.658432,28.410213 
	C129.141342,31.866144 133.442184,32.914474 132.546967,38.091747 
	C130.821854,48.068584 131.280884,58.479664 131.533981,68.693344 
	C131.583511,70.692291 134.804169,72.612656 136.581268,74.590439 
	C129.878510,74.590439 122.644714,74.590439 116.324394,74.590439 
	C117.532486,72.188736 118.955719,69.359344 120.940430,65.999313 
	C121.672958,58.684540 121.938881,51.900673 121.957115,45.116135 
	C121.962578,43.085026 121.276192,41.052063 120.906761,39.019947 
z"/>
<path fill="#262223" opacity="1.000000" stroke="none" 
	d="
M236.020248,75.882812 
	C223.988190,73.255089 217.037674,64.828453 216.989075,52.809906 
	C216.937347,40.016743 223.421524,31.971231 236.609680,29.356894 
	C236.993042,30.530174 236.999939,31.278486 236.794373,32.287060 
	C222.896881,41.190105 226.858185,68.927170 239.035065,73.732063 
	C237.939697,74.664001 236.979965,75.273407 236.020248,75.882812 
z"/>
<path fill="#F6F6F6" opacity="1.000000" stroke="none" 
	d="
M193.614624,50.991844 
	C195.123276,51.009315 196.277054,51.009315 198.184433,51.009315 
	C197.769867,56.349720 197.978363,61.585602 196.731583,66.448349 
	C196.089554,68.952423 193.205658,71.743988 190.696045,72.664864 
	C188.176910,73.589226 184.268661,74.246391 182.348724,70.527100 
	C180.466721,66.881340 180.449661,63.182152 182.987045,59.835907 
	C184.878372,57.341644 187.072586,55.077038 189.069778,52.341766 
	C190.425003,51.640377 191.842361,51.307377 193.614624,50.991844 
z"/>
<path fill="#F7F7F7" opacity="1.000000" stroke="none" 
	d="
M297.262054,48.989410 
	C301.836853,54.486660 300.203613,60.592056 299.163544,66.518517 
	C298.269897,71.610428 294.284149,73.433479 289.694519,73.423729 
	C288.124084,73.420395 286.145264,71.874481 285.067291,70.480835 
	C281.937012,66.433876 283.218353,62.280060 286.061554,58.769665 
	C287.965302,56.419151 290.633209,54.687572 293.018860,52.324738 
	C294.365936,50.978085 295.653412,49.985733 297.262054,48.989410 
z"/>
<path fill="#F8F8F8" opacity="1.000000" stroke="none" 
	d="
M91.302193,48.994839 
	C96.014038,55.031673 94.713219,61.607296 92.706398,67.843979 
	C91.183929,72.575409 84.948898,74.662392 80.668259,72.760048 
	C77.633270,71.411278 76.271118,64.425087 78.922455,60.809330 
	C81.153297,57.767014 84.259972,55.366920 87.034081,52.324635 
	C88.386024,50.978050 89.682823,49.989357 91.302193,48.994839 
z"/>
<path fill="#ED1D25" opacity="1.000000" stroke="none" 
	d="
M315.952667,3.007689 
	C315.952667,3.007690 316.332001,3.108134 316.526794,3.131527 
	C316.721558,10.112123 316.721558,17.069326 316.721558,24.835766 
	C313.311798,24.835766 310.086212,24.835766 306.412537,24.295309 
	C306.274200,16.572361 306.583923,9.389871 306.893646,2.207380 
	C309.002686,2.166153 311.111694,2.124926 313.826813,2.357945 
	C314.939484,2.757357 315.446075,2.882522 315.952667,3.007689 
z"/>
<path fill="#ED222A" opacity="1.000000" stroke="none" 
	d="
M301.470978,11.533567 
	C299.666077,14.094980 298.175568,17.299850 295.753448,18.344248 
	C291.285126,20.270945 287.673889,17.620224 285.323425,13.726601 
	C284.823456,12.898368 285.490509,10.299540 285.645538,10.297306 
	C289.962585,10.235132 290.719727,5.903111 293.760162,3.748124 
	C294.811371,5.915601 295.834229,8.024644 296.407196,9.206017 
	C298.393463,10.005839 299.879272,10.604150 301.470978,11.533567 
z"/>
<path fill="#000000" opacity="1.000000" stroke="none" 
	d="
M264.188477,62.507759 
	C263.750153,61.448288 263.045105,59.926147 263.039642,58.401489 
	C262.972839,39.838356 263.008881,21.274849 263.042908,2.226602 
	C263.432434,3.410288 264.105652,5.077082 264.115021,6.747599 
	C264.218384,25.179377 264.218597,43.611729 264.188477,62.507759 
z"/>
<path fill="#191416" opacity="1.000000" stroke="none" 
	d="
M236.395325,75.997131 
	C236.979965,75.273407 237.939697,74.664001 239.438599,73.812698 
	C243.328568,72.765503 246.679367,71.960205 250.030151,71.154907 
	C251.632904,71.585411 253.235641,72.015907 254.899902,72.763885 
	C254.082169,73.126381 253.010025,72.860001 252.354477,73.266083 
	C247.509308,76.267548 242.276001,76.871887 236.395325,75.997131 
z"/>
<path fill="#131011" opacity="1.000000" stroke="none" 
	d="
M237.006836,32.026798 
	C236.999939,31.278486 236.993042,30.530174 236.994949,29.407724 
	C242.726227,27.933514 247.945419,29.285156 252.877365,32.636497 
	C251.848572,32.994167 250.769455,32.996868 248.921570,32.933868 
	C244.437485,32.587715 240.722153,32.307255 237.006836,32.026798 
z"/>
<path fill="#020101" opacity="1.000000" stroke="none" 
	d="
M120.865631,39.485798 
	C121.276192,41.052063 121.962578,43.085026 121.957115,45.116135 
	C121.938881,51.900673 121.672958,58.684540 121.161232,65.717850 
	C120.821869,57.295235 120.823189,48.623440 120.865631,39.485798 
z"/>
<path fill="#020101" opacity="1.000000" stroke="none" 
	d="
M152.808350,41.494343 
	C153.245682,43.385044 153.947769,45.739128 153.955536,48.095497 
	C153.974640,53.886936 153.674149,59.679428 153.160034,65.719147 
	C152.797684,57.964119 152.777466,49.961445 152.808350,41.494343 
z"/>
<path fill="#EC0004" opacity="1.000000" stroke="none" 
	d="
M306.606018,2.174810 
	C306.583923,9.389871 306.274200,16.572361 305.960083,24.200323 
	C305.638062,20.226505 305.247681,15.810805 305.029297,11.386617 
	C304.892212,8.610355 305.013428,5.821342 305.089874,2.582485 
	C305.546783,2.132027 305.932617,2.137133 306.606018,2.174810 
z"/>
<path fill="#191416" opacity="1.000000" stroke="none" 
	d="
M254.919922,73.347687 
	C255.288574,73.724304 255.630905,74.429237 255.978821,75.455780 
	C255.620804,75.076935 255.257187,74.376472 254.919922,73.347687 
z"/>
<path fill="#010001" opacity="1.000000" stroke="none" 
	d="
M104.145966,67.648621 
	C103.893616,67.418716 103.692200,66.859558 103.720261,66.158218 
	C104.032127,66.450485 104.114510,66.884926 104.145966,67.648621 
z"/>
<path fill="#010001" opacity="1.000000" stroke="none" 
	d="
M103.935150,40.652229 
	C103.727158,40.438290 103.575165,39.905243 103.614868,39.216095 
	C103.868088,39.484364 103.929619,39.908741 103.935150,40.652229 
z"/>
<path fill="#141011" opacity="1.000000" stroke="none" 
	d="
M207.287933,38.775772 
	C207.059189,38.771526 206.884918,38.484089 206.893707,38.088638 
	C207.165298,38.151279 207.253860,38.321926 207.287933,38.775772 
z"/>
<path fill="#FAFBFC" opacity="1.000000" stroke="none" 
	d="
M193.837097,128.396210 
	C195.238174,119.409637 196.639252,110.423073 197.995316,101.725304 
	C198.828812,101.386421 199.126511,101.168053 199.433075,101.154793 
	C211.351501,100.639198 211.355469,100.639809 216.528870,111.455536 
	C218.239914,115.032753 219.925430,118.622177 221.315704,121.557915 
	C223.534058,120.944542 225.275833,120.111847 227.048309,120.040375 
	C231.870514,119.845894 236.705704,119.982399 241.535690,119.966888 
	C242.699356,119.963150 243.878372,119.982788 245.023239,119.811043 
	C248.022308,119.361137 250.511032,117.555000 249.628418,114.620361 
	C249.210236,113.229935 245.746948,112.002495 243.666229,112.007256 
	C237.624359,112.021118 231.584015,112.695389 224.651291,113.171852 
	C225.234894,108.642845 225.689606,105.114090 226.188217,101.244637 
	C235.825348,101.244637 245.291885,100.809509 254.694290,101.398491 
	C260.903229,101.787422 263.326202,105.305901 263.908142,111.793953 
	C264.002167,112.841934 264.395172,113.863091 264.858215,115.741219 
	C266.113129,113.952538 266.870483,112.941391 267.556793,111.884102 
	C274.107849,101.792076 285.041046,97.599396 296.598358,100.761948 
	C305.013824,103.064758 308.473633,108.065086 307.788361,117.230942 
	C305.690369,117.729996 303.528992,118.442642 301.313538,118.713898 
	C299.204529,118.972137 297.039093,118.769516 294.633484,118.769516 
	C293.914948,115.020721 293.674957,111.091888 288.639923,110.866859 
	C283.303314,110.628365 280.778687,113.943413 279.209869,118.213707 
	C278.189240,120.991890 277.093719,124.075981 277.361786,126.896637 
	C277.609802,129.506378 279.073090,133.334213 281.007904,134.107803 
	C283.352325,135.045181 288.457489,134.283630 289.388763,132.604691 
	C292.590912,126.831612 297.460541,128.088547 302.199463,127.995979 
	C303.355316,127.973396 304.511993,127.992622 306.194397,127.992622 
	C304.975952,134.227463 301.561310,138.492645 296.823364,141.768082 
	C290.541718,146.110703 283.565552,147.246719 276.172760,145.471344 
	C267.002319,143.269073 262.429321,137.205627 262.822906,127.747231 
	C262.939209,124.952477 263.471161,122.175018 263.931915,118.416832 
	C261.003510,120.627617 258.627258,122.421539 256.054443,124.363861 
	C264.490021,130.050842 257.206848,138.049652 259.607239,144.775375 
	C254.831894,144.775375 250.230026,144.775375 244.912811,144.775375 
	C245.148926,142.264893 245.220215,140.016739 245.593231,137.819824 
	C246.722244,131.170334 245.320221,129.710205 238.789825,130.818497 
	C237.697800,131.003830 236.547287,130.844620 235.391129,130.844620 
	C234.555969,135.433014 233.724731,139.999939 232.812866,145.009750 
	C229.467072,145.009750 226.152588,144.825272 222.869080,145.065155 
	C219.978394,145.276352 218.310791,144.365753 217.165237,141.591782 
	C215.329742,137.147110 213.103928,132.861252 210.975784,128.541443 
	C210.440475,127.454903 209.649429,126.494370 207.703949,125.570824 
	C206.625168,131.800232 205.546402,138.029648 204.403839,144.627441 
	C200.037888,144.627441 195.658951,144.627441 190.796799,144.627441 
	C191.511826,140.272537 192.203140,136.062073 193.188339,131.212906 
	C193.600510,129.848206 193.718796,129.122208 193.837097,128.396210 
z"/>
<path fill="#FAFBFC" opacity="1.000000" stroke="none" 
	d="
M83.136360,134.600525 
	C82.891243,137.986969 82.646126,141.373413 82.383133,145.006836 
	C78.933731,145.006836 75.273567,144.914902 71.620605,145.037491 
	C68.959465,145.126801 67.929626,144.011688 68.360565,141.441360 
	C68.580307,140.130661 68.860626,138.828735 69.038628,137.512711 
	C69.477852,134.265228 69.759369,130.932129 65.505661,130.049866 
	C61.568123,129.233185 58.656994,131.679276 57.965031,135.879898 
	C57.482960,138.806351 56.858837,141.709381 56.224365,145.006409 
	C52.229023,145.006409 48.404549,145.275330 44.654774,144.863724 
	C43.302433,144.715286 41.659145,143.181656 40.956116,141.852905 
	C37.928387,136.130386 35.205254,130.246857 32.347584,124.433578 
	C32.224716,124.183632 31.868288,124.048492 31.344492,123.649498 
	C30.168646,130.743805 29.020760,137.669388 27.846645,144.753235 
	C23.222103,144.753235 18.791311,144.753235 14.190435,144.753235 
	C16.539770,130.892914 18.792583,117.300812 21.243622,103.744553 
	C21.428885,102.719902 22.948439,101.305260 23.978437,101.184258 
	C26.936293,100.836746 29.999210,100.784569 32.942204,101.188812 
	C34.212173,101.363251 35.751831,102.710083 36.373432,103.929756 
	C39.159843,109.397095 41.659954,115.010345 43.983757,119.973679 
	C50.798477,119.973679 57.205894,119.985573 63.613209,119.965553 
	C65.275871,119.960358 67.306526,120.432167 68.514412,119.660965 
	C70.327415,118.503426 72.776520,116.445694 72.781548,114.764252 
	C72.790802,111.664536 69.709610,111.616631 67.135399,111.811684 
	C61.074894,112.270889 55.012444,112.704483 47.963757,113.220734 
	C48.600723,108.676964 49.110275,105.042130 49.654034,101.163246 
	C59.203224,101.163246 68.351082,100.706589 77.429428,101.304741 
	C84.974243,101.801849 87.276199,105.524910 86.861496,114.871574 
	C84.556915,118.730835 82.376480,121.839729 80.440323,124.600334 
	C81.252037,126.128906 82.197845,127.909973 83.101517,130.178116 
	C83.085037,131.976974 83.110703,133.288742 83.136360,134.600525 
z"/>
<path fill="#F9FAFC" opacity="1.000000" stroke="none" 
	d="
M193.522156,128.616333 
	C193.718796,129.122208 193.600510,129.848206 193.192871,130.811035 
	C191.709564,131.734573 189.998718,132.121338 189.399826,133.153381 
	C181.542618,146.693268 168.645020,148.244980 156.639832,144.489792 
	C151.852386,142.992294 148.573029,137.774948 147.694641,131.755661 
	C144.775192,111.749237 162.901123,95.282059 181.966293,100.890503 
	C189.859818,103.212547 193.361008,108.522652 192.572098,117.572395 
	C188.500580,118.084389 184.318176,118.610336 180.218048,119.125931 
	C179.728165,118.321777 179.503983,117.915840 179.244415,117.533943 
	C177.773026,115.369156 176.666718,111.889687 174.733139,111.342659 
	C171.404312,110.400909 167.283691,111.264809 165.624435,115.127724 
	C164.013824,118.877365 162.859161,122.895935 162.083527,126.908371 
	C161.446350,130.204468 162.427048,133.961578 166.107361,134.387009 
	C168.982864,134.719391 173.286545,133.813995 174.847031,131.813660 
	C177.219894,128.772018 179.425095,127.449127 182.967941,128.010559 
	C185.817474,128.462097 188.631226,129.140320 191.481781,129.583405 
	C192.005585,129.664825 192.629501,129.101959 193.522156,128.616333 
z"/>
<path fill="#F9FAFC" opacity="1.000000" stroke="none" 
	d="
M83.400558,134.342010 
	C83.110703,133.288742 83.085037,131.976974 83.494331,130.320496 
	C84.636284,129.388306 85.769180,128.924591 85.981674,128.193359 
	C87.444901,123.158356 88.715836,118.067459 90.048622,112.994537 
	C98.551414,101.297256 109.517586,97.138496 121.482216,101.073822 
	C128.829681,103.490509 132.540466,109.811295 130.924393,117.614128 
	C126.850891,118.078911 122.676529,118.555199 118.502174,119.031487 
	C118.767212,118.545456 119.032249,118.059425 119.297287,117.573387 
	C117.186852,115.371262 115.418602,111.929123 112.892822,111.232117 
	C108.037888,109.892380 104.761566,112.509041 102.775627,118.095268 
	C101.732735,121.028801 100.742065,124.253105 100.935913,127.268448 
	C101.092567,129.705292 102.520943,133.295044 104.358719,134.072708 
	C106.593018,135.018173 111.451546,134.517227 112.389381,132.962143 
	C116.850250,125.565346 123.435150,128.487091 129.511978,128.119003 
	C127.404243,137.304230 118.983986,145.003128 109.697845,146.451904 
	C98.614227,148.181137 91.468300,143.920837 85.623039,131.914093 
	C84.922409,132.690247 84.293579,133.386887 83.400558,134.342010 
z"/>
<path fill="#2E6898" opacity="1.000000" stroke="none" 
	d="
M89.772537,113.119644 
	C88.715836,118.067459 87.444901,123.158356 85.981674,128.193359 
	C85.769180,128.924591 84.636284,129.388306 83.536469,129.833435 
	C82.197845,127.909973 81.252037,126.128906 80.440323,124.600334 
	C82.376480,121.839729 84.556915,118.730835 86.889191,115.308060 
	C87.859505,114.411034 88.677979,113.827896 89.772537,113.119644 
z"/>
<path fill="#F5F7F9" opacity="1.000000" stroke="none" 
	d="
M142.955536,121.023384 
	C142.740494,122.877541 142.460709,124.303108 142.207397,125.593781 
	C139.768463,126.021065 137.705231,126.382530 134.961472,126.863220 
	C135.237213,124.610146 135.501022,122.454521 135.828430,119.779205 
	C138.443344,120.081192 140.667068,120.337997 142.955536,121.023384 
z"/>
<path fill="#FCFCFC" opacity="1.000000" stroke="none" 
	d="
M236.794373,32.287060 
	C240.722153,32.307255 244.437485,32.587715 248.517761,32.960602 
	C255.915833,41.673168 256.623199,60.954597 250.142746,70.811615 
	C246.679367,71.960205 243.328568,72.765503 239.574249,73.490166 
	C226.858185,68.927170 222.896881,41.190105 236.794373,32.287060 
z"/>
<path fill="#EC0004" opacity="1.000000" stroke="none" 
	d="
M315.872498,2.729372 
	C315.446075,2.882522 314.939484,2.757357 314.275269,2.419839 
	C314.675873,2.288676 315.234100,2.369866 315.872498,2.729372 
z"/>
</svg>